<mxfile host="app.diagrams.net" modified="2023-03-05T04:12:56.301Z" agent="5.0 (Windows NT 10.0; Win64; x64) AppleWebKit/537.36 (KHTML, like Gecko) Chrome/110.0.0.0 Safari/537.36" etag="G-0TsmAr6kp07p9NzCia" version="21.0.2" type="github">
  <diagram id="C5RBs43oDa-KdzZeNtuy" name="Page-1">
    <mxGraphModel dx="1290" dy="573" grid="1" gridSize="10" guides="1" tooltips="1" connect="1" arrows="1" fold="1" page="1" pageScale="1" pageWidth="827" pageHeight="1169" math="0" shadow="0">
      <root>
        <mxCell id="WIyWlLk6GJQsqaUBKTNV-0" />
        <mxCell id="WIyWlLk6GJQsqaUBKTNV-1" parent="WIyWlLk6GJQsqaUBKTNV-0" />
        <mxCell id="H5BLx-7K5FUIB1N3bR7o-39" value="" style="rounded=0;html=1;jettySize=auto;orthogonalLoop=1;fontSize=11;endArrow=block;endFill=0;endSize=8;strokeWidth=1;shadow=0;labelBackgroundColor=none;edgeStyle=orthogonalEdgeStyle;" parent="WIyWlLk6GJQsqaUBKTNV-1" source="H5BLx-7K5FUIB1N3bR7o-40" target="H5BLx-7K5FUIB1N3bR7o-42" edge="1">
          <mxGeometry relative="1" as="geometry" />
        </mxCell>
        <mxCell id="H5BLx-7K5FUIB1N3bR7o-40" value="doInsert" style="rounded=1;whiteSpace=wrap;html=1;fontSize=12;glass=0;strokeWidth=1;shadow=0;" parent="WIyWlLk6GJQsqaUBKTNV-1" vertex="1">
          <mxGeometry x="76" y="40" width="120" height="40" as="geometry" />
        </mxCell>
        <mxCell id="H5BLx-7K5FUIB1N3bR7o-41" value="Yes" style="rounded=0;html=1;jettySize=auto;orthogonalLoop=1;fontSize=11;endArrow=block;endFill=0;endSize=8;strokeWidth=1;shadow=0;labelBackgroundColor=none;edgeStyle=orthogonalEdgeStyle;" parent="WIyWlLk6GJQsqaUBKTNV-1" source="H5BLx-7K5FUIB1N3bR7o-42" target="H5BLx-7K5FUIB1N3bR7o-46" edge="1">
          <mxGeometry y="20" relative="1" as="geometry">
            <mxPoint as="offset" />
            <mxPoint x="136" y="240" as="targetPoint" />
          </mxGeometry>
        </mxCell>
        <mxCell id="H5BLx-7K5FUIB1N3bR7o-42" value="&amp;lt; replicas.size()?" style="rhombus;whiteSpace=wrap;html=1;shadow=0;fontFamily=Helvetica;fontSize=12;align=center;strokeWidth=1;spacing=6;spacingTop=-4;" parent="WIyWlLk6GJQsqaUBKTNV-1" vertex="1">
          <mxGeometry x="71" y="120" width="130" height="50" as="geometry" />
        </mxCell>
        <mxCell id="H5BLx-7K5FUIB1N3bR7o-43" value="" style="rounded=0;html=1;jettySize=auto;orthogonalLoop=1;fontSize=11;endArrow=block;endFill=0;endSize=8;strokeWidth=1;shadow=0;labelBackgroundColor=none;edgeStyle=orthogonalEdgeStyle;" parent="WIyWlLk6GJQsqaUBKTNV-1" source="H5BLx-7K5FUIB1N3bR7o-46" target="H5BLx-7K5FUIB1N3bR7o-47" edge="1">
          <mxGeometry y="20" relative="1" as="geometry">
            <mxPoint as="offset" />
            <mxPoint x="136" y="280" as="sourcePoint" />
            <mxPoint x="136" y="310" as="targetPoint" />
          </mxGeometry>
        </mxCell>
        <mxCell id="H5BLx-7K5FUIB1N3bR7o-44" value="" style="rounded=0;html=1;jettySize=auto;orthogonalLoop=1;fontSize=11;endArrow=block;endFill=0;endSize=8;strokeWidth=1;shadow=0;labelBackgroundColor=none;edgeStyle=orthogonalEdgeStyle;" parent="WIyWlLk6GJQsqaUBKTNV-1" source="H5BLx-7K5FUIB1N3bR7o-47" target="H5BLx-7K5FUIB1N3bR7o-48" edge="1">
          <mxGeometry y="20" relative="1" as="geometry">
            <mxPoint as="offset" />
            <mxPoint x="136" y="350" as="sourcePoint" />
            <mxPoint x="156" y="260" as="targetPoint" />
          </mxGeometry>
        </mxCell>
        <mxCell id="H5BLx-7K5FUIB1N3bR7o-45" value="end" style="rounded=1;whiteSpace=wrap;html=1;fontSize=12;glass=0;strokeWidth=1;shadow=0;" parent="WIyWlLk6GJQsqaUBKTNV-1" vertex="1">
          <mxGeometry x="76" y="470" width="120" height="40" as="geometry" />
        </mxCell>
        <mxCell id="H5BLx-7K5FUIB1N3bR7o-46" value="get the replicas handle" style="rounded=0;whiteSpace=wrap;html=1;" parent="WIyWlLk6GJQsqaUBKTNV-1" vertex="1">
          <mxGeometry x="76" y="210" width="120" height="40" as="geometry" />
        </mxCell>
        <mxCell id="H5BLx-7K5FUIB1N3bR7o-47" value="build message" style="rounded=0;whiteSpace=wrap;html=1;" parent="WIyWlLk6GJQsqaUBKTNV-1" vertex="1">
          <mxGeometry x="76" y="295" width="120" height="40" as="geometry" />
        </mxCell>
        <mxCell id="H5BLx-7K5FUIB1N3bR7o-48" value="send request" style="rounded=0;whiteSpace=wrap;html=1;" parent="WIyWlLk6GJQsqaUBKTNV-1" vertex="1">
          <mxGeometry x="76" y="380" width="120" height="40" as="geometry" />
        </mxCell>
        <mxCell id="H5BLx-7K5FUIB1N3bR7o-49" value="" style="rounded=0;html=1;jettySize=auto;orthogonalLoop=1;fontSize=11;endArrow=block;endFill=0;endSize=8;strokeWidth=1;shadow=0;labelBackgroundColor=none;edgeStyle=orthogonalEdgeStyle;" parent="WIyWlLk6GJQsqaUBKTNV-1" source="H5BLx-7K5FUIB1N3bR7o-48" target="H5BLx-7K5FUIB1N3bR7o-45" edge="1">
          <mxGeometry y="20" relative="1" as="geometry">
            <mxPoint as="offset" />
            <mxPoint x="146" y="360" as="sourcePoint" />
            <mxPoint x="146" y="390" as="targetPoint" />
          </mxGeometry>
        </mxCell>
        <mxCell id="H5BLx-7K5FUIB1N3bR7o-50" value="pending table&amp;nbsp;" style="swimlane;whiteSpace=wrap;html=1;" parent="WIyWlLk6GJQsqaUBKTNV-1" vertex="1">
          <mxGeometry x="266" y="300" width="110" height="200" as="geometry" />
        </mxCell>
        <mxCell id="H5BLx-7K5FUIB1N3bR7o-51" value="" style="rounded=0;html=1;jettySize=auto;orthogonalLoop=1;fontSize=11;endArrow=block;endFill=0;endSize=8;strokeWidth=1;shadow=0;labelBackgroundColor=none;edgeStyle=orthogonalEdgeStyle;exitX=1;exitY=0.5;exitDx=0;exitDy=0;" parent="WIyWlLk6GJQsqaUBKTNV-1" source="H5BLx-7K5FUIB1N3bR7o-48" target="H5BLx-7K5FUIB1N3bR7o-50" edge="1">
          <mxGeometry y="20" relative="1" as="geometry">
            <mxPoint as="offset" />
            <mxPoint x="146" y="360" as="sourcePoint" />
            <mxPoint x="146" y="390" as="targetPoint" />
          </mxGeometry>
        </mxCell>
        <mxCell id="H5BLx-7K5FUIB1N3bR7o-52" value="insert pending" style="text;html=1;strokeColor=none;fillColor=none;align=center;verticalAlign=middle;whiteSpace=wrap;rounded=0;" parent="WIyWlLk6GJQsqaUBKTNV-1" vertex="1">
          <mxGeometry x="201" y="360" width="60" height="30" as="geometry" />
        </mxCell>
        <mxCell id="H5BLx-7K5FUIB1N3bR7o-53" value="handle response" style="rounded=0;whiteSpace=wrap;html=1;" parent="WIyWlLk6GJQsqaUBKTNV-1" vertex="1">
          <mxGeometry x="441" y="380" width="120" height="40" as="geometry" />
        </mxCell>
        <mxCell id="H5BLx-7K5FUIB1N3bR7o-54" value="" style="rounded=0;html=1;jettySize=auto;orthogonalLoop=1;fontSize=11;endArrow=block;endFill=0;endSize=8;strokeWidth=1;shadow=0;labelBackgroundColor=none;edgeStyle=orthogonalEdgeStyle;entryX=1;entryY=0.5;entryDx=0;entryDy=0;" parent="WIyWlLk6GJQsqaUBKTNV-1" source="H5BLx-7K5FUIB1N3bR7o-53" target="H5BLx-7K5FUIB1N3bR7o-50" edge="1">
          <mxGeometry y="20" relative="1" as="geometry">
            <mxPoint as="offset" />
            <mxPoint x="206" y="410" as="sourcePoint" />
            <mxPoint x="306" y="410" as="targetPoint" />
          </mxGeometry>
        </mxCell>
        <mxCell id="H5BLx-7K5FUIB1N3bR7o-55" value="remove pending" style="text;html=1;strokeColor=none;fillColor=none;align=center;verticalAlign=middle;whiteSpace=wrap;rounded=0;" parent="WIyWlLk6GJQsqaUBKTNV-1" vertex="1">
          <mxGeometry x="381" y="360" width="60" height="30" as="geometry" />
        </mxCell>
        <mxCell id="H5BLx-7K5FUIB1N3bR7o-56" value="msg.isResponse()?" style="rhombus;whiteSpace=wrap;html=1;shadow=0;fontFamily=Helvetica;fontSize=12;align=center;strokeWidth=1;spacing=6;spacingTop=-4;" parent="WIyWlLk6GJQsqaUBKTNV-1" vertex="1">
          <mxGeometry x="436" y="290" width="130" height="50" as="geometry" />
        </mxCell>
        <mxCell id="H5BLx-7K5FUIB1N3bR7o-57" value="Yes" style="rounded=0;html=1;jettySize=auto;orthogonalLoop=1;fontSize=11;endArrow=block;endFill=0;endSize=8;strokeWidth=1;shadow=0;labelBackgroundColor=none;edgeStyle=orthogonalEdgeStyle;exitX=0.5;exitY=1;exitDx=0;exitDy=0;" parent="WIyWlLk6GJQsqaUBKTNV-1" source="H5BLx-7K5FUIB1N3bR7o-56" target="H5BLx-7K5FUIB1N3bR7o-53" edge="1">
          <mxGeometry y="20" relative="1" as="geometry">
            <mxPoint as="offset" />
            <mxPoint x="71" y="220" as="sourcePoint" />
            <mxPoint x="71" y="250" as="targetPoint" />
          </mxGeometry>
        </mxCell>
        <mxCell id="H5BLx-7K5FUIB1N3bR7o-58" value="deliver" style="rounded=1;whiteSpace=wrap;html=1;fontSize=12;glass=0;strokeWidth=1;shadow=0;" parent="WIyWlLk6GJQsqaUBKTNV-1" vertex="1">
          <mxGeometry x="441" y="210" width="120" height="40" as="geometry" />
        </mxCell>
        <mxCell id="H5BLx-7K5FUIB1N3bR7o-59" value="" style="rounded=0;html=1;jettySize=auto;orthogonalLoop=1;fontSize=11;endArrow=block;endFill=0;endSize=8;strokeWidth=1;shadow=0;labelBackgroundColor=none;edgeStyle=orthogonalEdgeStyle;exitX=0.5;exitY=1;exitDx=0;exitDy=0;entryX=0.5;entryY=0;entryDx=0;entryDy=0;" parent="WIyWlLk6GJQsqaUBKTNV-1" source="H5BLx-7K5FUIB1N3bR7o-58" target="H5BLx-7K5FUIB1N3bR7o-56" edge="1">
          <mxGeometry relative="1" as="geometry">
            <mxPoint x="71" y="90" as="sourcePoint" />
            <mxPoint x="71" y="130" as="targetPoint" />
          </mxGeometry>
        </mxCell>
        <mxCell id="H5BLx-7K5FUIB1N3bR7o-60" value="end" style="rounded=1;whiteSpace=wrap;html=1;fontSize=12;glass=0;strokeWidth=1;shadow=0;" parent="WIyWlLk6GJQsqaUBKTNV-1" vertex="1">
          <mxGeometry x="441" y="560" width="120" height="40" as="geometry" />
        </mxCell>
        <mxCell id="H5BLx-7K5FUIB1N3bR7o-61" value="" style="rounded=0;html=1;jettySize=auto;orthogonalLoop=1;fontSize=11;endArrow=block;endFill=0;endSize=8;strokeWidth=1;shadow=0;labelBackgroundColor=none;edgeStyle=orthogonalEdgeStyle;exitX=0.5;exitY=1;exitDx=0;exitDy=0;" parent="WIyWlLk6GJQsqaUBKTNV-1" source="H5BLx-7K5FUIB1N3bR7o-53" target="H5BLx-7K5FUIB1N3bR7o-60" edge="1">
          <mxGeometry y="20" relative="1" as="geometry">
            <mxPoint as="offset" />
            <mxPoint x="71" y="430" as="sourcePoint" />
            <mxPoint x="71" y="480" as="targetPoint" />
          </mxGeometry>
        </mxCell>
        <mxCell id="H5BLx-7K5FUIB1N3bR7o-62" value="check insert" style="rounded=0;whiteSpace=wrap;html=1;" parent="WIyWlLk6GJQsqaUBKTNV-1" vertex="1">
          <mxGeometry x="616" y="380" width="120" height="40" as="geometry" />
        </mxCell>
        <mxCell id="H5BLx-7K5FUIB1N3bR7o-63" value="lock" style="rounded=0;whiteSpace=wrap;html=1;" parent="WIyWlLk6GJQsqaUBKTNV-1" vertex="1">
          <mxGeometry x="616" y="295" width="120" height="40" as="geometry" />
        </mxCell>
        <mxCell id="H5BLx-7K5FUIB1N3bR7o-64" value="No" style="rounded=0;html=1;jettySize=auto;orthogonalLoop=1;fontSize=11;endArrow=block;endFill=0;endSize=8;strokeWidth=1;shadow=0;labelBackgroundColor=none;edgeStyle=orthogonalEdgeStyle;exitX=1;exitY=0.5;exitDx=0;exitDy=0;" parent="WIyWlLk6GJQsqaUBKTNV-1" source="H5BLx-7K5FUIB1N3bR7o-56" target="H5BLx-7K5FUIB1N3bR7o-63" edge="1">
          <mxGeometry y="20" relative="1" as="geometry">
            <mxPoint as="offset" />
            <mxPoint x="511" y="350" as="sourcePoint" />
            <mxPoint x="511" y="390" as="targetPoint" />
          </mxGeometry>
        </mxCell>
        <mxCell id="H5BLx-7K5FUIB1N3bR7o-65" value="storage" style="rounded=0;whiteSpace=wrap;html=1;" parent="WIyWlLk6GJQsqaUBKTNV-1" vertex="1">
          <mxGeometry x="616" y="470" width="120" height="40" as="geometry" />
        </mxCell>
        <mxCell id="H5BLx-7K5FUIB1N3bR7o-66" value="" style="rounded=0;html=1;jettySize=auto;orthogonalLoop=1;fontSize=11;endArrow=block;endFill=0;endSize=8;strokeWidth=1;shadow=0;labelBackgroundColor=none;edgeStyle=orthogonalEdgeStyle;exitX=0.5;exitY=1;exitDx=0;exitDy=0;entryX=0.5;entryY=0;entryDx=0;entryDy=0;" parent="WIyWlLk6GJQsqaUBKTNV-1" source="H5BLx-7K5FUIB1N3bR7o-63" target="H5BLx-7K5FUIB1N3bR7o-62" edge="1">
          <mxGeometry y="20" relative="1" as="geometry">
            <mxPoint as="offset" />
            <mxPoint x="511" y="430" as="sourcePoint" />
            <mxPoint x="511" y="480" as="targetPoint" />
          </mxGeometry>
        </mxCell>
        <mxCell id="H5BLx-7K5FUIB1N3bR7o-67" value="" style="rounded=0;html=1;jettySize=auto;orthogonalLoop=1;fontSize=11;endArrow=block;endFill=0;endSize=8;strokeWidth=1;shadow=0;labelBackgroundColor=none;edgeStyle=orthogonalEdgeStyle;exitX=0.5;exitY=1;exitDx=0;exitDy=0;" parent="WIyWlLk6GJQsqaUBKTNV-1" source="H5BLx-7K5FUIB1N3bR7o-62" target="H5BLx-7K5FUIB1N3bR7o-65" edge="1">
          <mxGeometry y="20" relative="1" as="geometry">
            <mxPoint as="offset" />
            <mxPoint x="686" y="345" as="sourcePoint" />
            <mxPoint x="686" y="390" as="targetPoint" />
          </mxGeometry>
        </mxCell>
        <mxCell id="H5BLx-7K5FUIB1N3bR7o-68" value="" style="rounded=0;html=1;jettySize=auto;orthogonalLoop=1;fontSize=11;endArrow=block;endFill=0;endSize=8;strokeWidth=1;shadow=0;labelBackgroundColor=none;edgeStyle=orthogonalEdgeStyle;exitX=0.5;exitY=1;exitDx=0;exitDy=0;entryX=0.5;entryY=0;entryDx=0;entryDy=0;" parent="WIyWlLk6GJQsqaUBKTNV-1" source="H5BLx-7K5FUIB1N3bR7o-65" target="H5BLx-7K5FUIB1N3bR7o-69" edge="1">
          <mxGeometry y="20" relative="1" as="geometry">
            <mxPoint as="offset" />
            <mxPoint x="686" y="430" as="sourcePoint" />
            <mxPoint x="686" y="480" as="targetPoint" />
          </mxGeometry>
        </mxCell>
        <mxCell id="H5BLx-7K5FUIB1N3bR7o-69" value="unlock" style="rounded=0;whiteSpace=wrap;html=1;" parent="WIyWlLk6GJQsqaUBKTNV-1" vertex="1">
          <mxGeometry x="616" y="560" width="120" height="40" as="geometry" />
        </mxCell>
        <mxCell id="H5BLx-7K5FUIB1N3bR7o-70" value="" style="rounded=0;html=1;jettySize=auto;orthogonalLoop=1;fontSize=11;endArrow=block;endFill=0;endSize=8;strokeWidth=1;shadow=0;labelBackgroundColor=none;edgeStyle=orthogonalEdgeStyle;exitX=0;exitY=0.5;exitDx=0;exitDy=0;" parent="WIyWlLk6GJQsqaUBKTNV-1" source="H5BLx-7K5FUIB1N3bR7o-69" target="H5BLx-7K5FUIB1N3bR7o-60" edge="1">
          <mxGeometry y="20" relative="1" as="geometry">
            <mxPoint as="offset" />
            <mxPoint x="686" y="520" as="sourcePoint" />
            <mxPoint x="686" y="570" as="targetPoint" />
          </mxGeometry>
        </mxCell>
        <mxCell id="H5BLx-7K5FUIB1N3bR7o-72" value="lookup" style="rounded=1;whiteSpace=wrap;html=1;fontSize=12;glass=0;strokeWidth=1;shadow=0;" parent="WIyWlLk6GJQsqaUBKTNV-1" vertex="1">
          <mxGeometry x="81" y="825" width="120" height="40" as="geometry" />
        </mxCell>
        <mxCell id="H5BLx-7K5FUIB1N3bR7o-76" value="" style="rounded=0;html=1;jettySize=auto;orthogonalLoop=1;fontSize=11;endArrow=block;endFill=0;endSize=8;strokeWidth=1;shadow=0;labelBackgroundColor=none;edgeStyle=orthogonalEdgeStyle;exitX=0.5;exitY=1;exitDx=0;exitDy=0;" parent="WIyWlLk6GJQsqaUBKTNV-1" source="H5BLx-7K5FUIB1N3bR7o-72" target="H5BLx-7K5FUIB1N3bR7o-80" edge="1">
          <mxGeometry y="20" relative="1" as="geometry">
            <mxPoint as="offset" />
            <mxPoint x="141" y="865" as="sourcePoint" />
            <mxPoint x="161" y="790" as="targetPoint" />
          </mxGeometry>
        </mxCell>
        <mxCell id="H5BLx-7K5FUIB1N3bR7o-77" value="end" style="rounded=1;whiteSpace=wrap;html=1;fontSize=12;glass=0;strokeWidth=1;shadow=0;" parent="WIyWlLk6GJQsqaUBKTNV-1" vertex="1">
          <mxGeometry x="81" y="1000" width="120" height="40" as="geometry" />
        </mxCell>
        <mxCell id="H5BLx-7K5FUIB1N3bR7o-80" value="send request" style="rounded=0;whiteSpace=wrap;html=1;" parent="WIyWlLk6GJQsqaUBKTNV-1" vertex="1">
          <mxGeometry x="81" y="910" width="120" height="40" as="geometry" />
        </mxCell>
        <mxCell id="H5BLx-7K5FUIB1N3bR7o-81" value="" style="rounded=0;html=1;jettySize=auto;orthogonalLoop=1;fontSize=11;endArrow=block;endFill=0;endSize=8;strokeWidth=1;shadow=0;labelBackgroundColor=none;edgeStyle=orthogonalEdgeStyle;" parent="WIyWlLk6GJQsqaUBKTNV-1" source="H5BLx-7K5FUIB1N3bR7o-80" target="H5BLx-7K5FUIB1N3bR7o-77" edge="1">
          <mxGeometry y="20" relative="1" as="geometry">
            <mxPoint as="offset" />
            <mxPoint x="151" y="890" as="sourcePoint" />
            <mxPoint x="151" y="920" as="targetPoint" />
          </mxGeometry>
        </mxCell>
        <mxCell id="H5BLx-7K5FUIB1N3bR7o-82" value="pending table&amp;nbsp;" style="swimlane;whiteSpace=wrap;html=1;" parent="WIyWlLk6GJQsqaUBKTNV-1" vertex="1">
          <mxGeometry x="271" y="830" width="110" height="200" as="geometry" />
        </mxCell>
        <mxCell id="H5BLx-7K5FUIB1N3bR7o-83" value="" style="rounded=0;html=1;jettySize=auto;orthogonalLoop=1;fontSize=11;endArrow=block;endFill=0;endSize=8;strokeWidth=1;shadow=0;labelBackgroundColor=none;edgeStyle=orthogonalEdgeStyle;exitX=1;exitY=0.5;exitDx=0;exitDy=0;" parent="WIyWlLk6GJQsqaUBKTNV-1" source="H5BLx-7K5FUIB1N3bR7o-80" target="H5BLx-7K5FUIB1N3bR7o-82" edge="1">
          <mxGeometry y="20" relative="1" as="geometry">
            <mxPoint as="offset" />
            <mxPoint x="151" y="890" as="sourcePoint" />
            <mxPoint x="151" y="920" as="targetPoint" />
          </mxGeometry>
        </mxCell>
        <mxCell id="H5BLx-7K5FUIB1N3bR7o-84" value="insert pending" style="text;html=1;strokeColor=none;fillColor=none;align=center;verticalAlign=middle;whiteSpace=wrap;rounded=0;" parent="WIyWlLk6GJQsqaUBKTNV-1" vertex="1">
          <mxGeometry x="206" y="890" width="60" height="30" as="geometry" />
        </mxCell>
        <mxCell id="H5BLx-7K5FUIB1N3bR7o-85" value="handle response" style="rounded=0;whiteSpace=wrap;html=1;" parent="WIyWlLk6GJQsqaUBKTNV-1" vertex="1">
          <mxGeometry x="446" y="910" width="120" height="40" as="geometry" />
        </mxCell>
        <mxCell id="H5BLx-7K5FUIB1N3bR7o-86" value="" style="rounded=0;html=1;jettySize=auto;orthogonalLoop=1;fontSize=11;endArrow=block;endFill=0;endSize=8;strokeWidth=1;shadow=0;labelBackgroundColor=none;edgeStyle=orthogonalEdgeStyle;entryX=1;entryY=0.5;entryDx=0;entryDy=0;" parent="WIyWlLk6GJQsqaUBKTNV-1" source="H5BLx-7K5FUIB1N3bR7o-85" target="H5BLx-7K5FUIB1N3bR7o-82" edge="1">
          <mxGeometry y="20" relative="1" as="geometry">
            <mxPoint as="offset" />
            <mxPoint x="211" y="940" as="sourcePoint" />
            <mxPoint x="311" y="940" as="targetPoint" />
          </mxGeometry>
        </mxCell>
        <mxCell id="H5BLx-7K5FUIB1N3bR7o-87" value="remove pending" style="text;html=1;strokeColor=none;fillColor=none;align=center;verticalAlign=middle;whiteSpace=wrap;rounded=0;" parent="WIyWlLk6GJQsqaUBKTNV-1" vertex="1">
          <mxGeometry x="386" y="890" width="60" height="30" as="geometry" />
        </mxCell>
        <mxCell id="H5BLx-7K5FUIB1N3bR7o-88" value="msg.isResponse()?" style="rhombus;whiteSpace=wrap;html=1;shadow=0;fontFamily=Helvetica;fontSize=12;align=center;strokeWidth=1;spacing=6;spacingTop=-4;" parent="WIyWlLk6GJQsqaUBKTNV-1" vertex="1">
          <mxGeometry x="441" y="820" width="130" height="50" as="geometry" />
        </mxCell>
        <mxCell id="H5BLx-7K5FUIB1N3bR7o-89" value="Yes" style="rounded=0;html=1;jettySize=auto;orthogonalLoop=1;fontSize=11;endArrow=block;endFill=0;endSize=8;strokeWidth=1;shadow=0;labelBackgroundColor=none;edgeStyle=orthogonalEdgeStyle;exitX=0.5;exitY=1;exitDx=0;exitDy=0;" parent="WIyWlLk6GJQsqaUBKTNV-1" source="H5BLx-7K5FUIB1N3bR7o-88" target="H5BLx-7K5FUIB1N3bR7o-85" edge="1">
          <mxGeometry y="20" relative="1" as="geometry">
            <mxPoint as="offset" />
            <mxPoint x="76" y="750" as="sourcePoint" />
            <mxPoint x="76" y="780" as="targetPoint" />
          </mxGeometry>
        </mxCell>
        <mxCell id="H5BLx-7K5FUIB1N3bR7o-90" value="deliver" style="rounded=1;whiteSpace=wrap;html=1;fontSize=12;glass=0;strokeWidth=1;shadow=0;" parent="WIyWlLk6GJQsqaUBKTNV-1" vertex="1">
          <mxGeometry x="446" y="740" width="120" height="40" as="geometry" />
        </mxCell>
        <mxCell id="H5BLx-7K5FUIB1N3bR7o-91" value="" style="rounded=0;html=1;jettySize=auto;orthogonalLoop=1;fontSize=11;endArrow=block;endFill=0;endSize=8;strokeWidth=1;shadow=0;labelBackgroundColor=none;edgeStyle=orthogonalEdgeStyle;exitX=0.5;exitY=1;exitDx=0;exitDy=0;entryX=0.5;entryY=0;entryDx=0;entryDy=0;" parent="WIyWlLk6GJQsqaUBKTNV-1" source="H5BLx-7K5FUIB1N3bR7o-90" target="H5BLx-7K5FUIB1N3bR7o-88" edge="1">
          <mxGeometry relative="1" as="geometry">
            <mxPoint x="76" y="620" as="sourcePoint" />
            <mxPoint x="76" y="660" as="targetPoint" />
          </mxGeometry>
        </mxCell>
        <mxCell id="H5BLx-7K5FUIB1N3bR7o-92" value="end" style="rounded=1;whiteSpace=wrap;html=1;fontSize=12;glass=0;strokeWidth=1;shadow=0;" parent="WIyWlLk6GJQsqaUBKTNV-1" vertex="1">
          <mxGeometry x="446" y="1000" width="120" height="40" as="geometry" />
        </mxCell>
        <mxCell id="H5BLx-7K5FUIB1N3bR7o-93" value="" style="rounded=0;html=1;jettySize=auto;orthogonalLoop=1;fontSize=11;endArrow=block;endFill=0;endSize=8;strokeWidth=1;shadow=0;labelBackgroundColor=none;edgeStyle=orthogonalEdgeStyle;exitX=0.5;exitY=1;exitDx=0;exitDy=0;" parent="WIyWlLk6GJQsqaUBKTNV-1" source="H5BLx-7K5FUIB1N3bR7o-85" target="H5BLx-7K5FUIB1N3bR7o-92" edge="1">
          <mxGeometry y="20" relative="1" as="geometry">
            <mxPoint as="offset" />
            <mxPoint x="76" y="960" as="sourcePoint" />
            <mxPoint x="76" y="1010" as="targetPoint" />
            <Array as="points">
              <mxPoint x="506" y="1010" />
              <mxPoint x="506" y="1010" />
            </Array>
          </mxGeometry>
        </mxCell>
        <mxCell id="H5BLx-7K5FUIB1N3bR7o-95" value="receiveResult" style="rounded=0;whiteSpace=wrap;html=1;" parent="WIyWlLk6GJQsqaUBKTNV-1" vertex="1">
          <mxGeometry x="621" y="825" width="120" height="40" as="geometry" />
        </mxCell>
        <mxCell id="H5BLx-7K5FUIB1N3bR7o-96" value="No" style="rounded=0;html=1;jettySize=auto;orthogonalLoop=1;fontSize=11;endArrow=block;endFill=0;endSize=8;strokeWidth=1;shadow=0;labelBackgroundColor=none;edgeStyle=orthogonalEdgeStyle;exitX=1;exitY=0.5;exitDx=0;exitDy=0;" parent="WIyWlLk6GJQsqaUBKTNV-1" source="H5BLx-7K5FUIB1N3bR7o-88" target="H5BLx-7K5FUIB1N3bR7o-95" edge="1">
          <mxGeometry y="20" relative="1" as="geometry">
            <mxPoint as="offset" />
            <mxPoint x="516" y="880" as="sourcePoint" />
            <mxPoint x="516" y="920" as="targetPoint" />
          </mxGeometry>
        </mxCell>
        <mxCell id="H5BLx-7K5FUIB1N3bR7o-98" value="" style="rounded=0;html=1;jettySize=auto;orthogonalLoop=1;fontSize=11;endArrow=block;endFill=0;endSize=8;strokeWidth=1;shadow=0;labelBackgroundColor=none;edgeStyle=orthogonalEdgeStyle;exitX=0.5;exitY=1;exitDx=0;exitDy=0;entryX=0.5;entryY=0;entryDx=0;entryDy=0;" parent="WIyWlLk6GJQsqaUBKTNV-1" source="H5BLx-7K5FUIB1N3bR7o-95" target="H5BLx-7K5FUIB1N3bR7o-101" edge="1">
          <mxGeometry y="20" relative="1" as="geometry">
            <mxPoint as="offset" />
            <mxPoint x="516" y="960" as="sourcePoint" />
            <mxPoint x="681" y="910" as="targetPoint" />
          </mxGeometry>
        </mxCell>
        <mxCell id="H5BLx-7K5FUIB1N3bR7o-101" value="cache to prev handle" style="rounded=0;whiteSpace=wrap;html=1;" parent="WIyWlLk6GJQsqaUBKTNV-1" vertex="1">
          <mxGeometry x="621" y="910" width="120" height="40" as="geometry" />
        </mxCell>
        <mxCell id="H5BLx-7K5FUIB1N3bR7o-102" value="" style="rounded=0;html=1;jettySize=auto;orthogonalLoop=1;fontSize=11;endArrow=block;endFill=0;endSize=8;strokeWidth=1;shadow=0;labelBackgroundColor=none;edgeStyle=orthogonalEdgeStyle;exitX=0.5;exitY=1;exitDx=0;exitDy=0;entryX=1;entryY=0.5;entryDx=0;entryDy=0;" parent="WIyWlLk6GJQsqaUBKTNV-1" source="H5BLx-7K5FUIB1N3bR7o-101" target="H5BLx-7K5FUIB1N3bR7o-92" edge="1">
          <mxGeometry y="20" relative="1" as="geometry">
            <mxPoint as="offset" />
            <mxPoint x="691" y="1050" as="sourcePoint" />
            <mxPoint x="691" y="1100" as="targetPoint" />
          </mxGeometry>
        </mxCell>
      </root>
    </mxGraphModel>
  </diagram>
</mxfile>
